<?xml version="1.0" encoding="UTF-8" standalone="no"?>
<!-- Created with Inkscape (http://www.inkscape.org/) -->

<svg
   width="26.830433mm"
   height="45.595634mm"
   viewBox="0 0 26.830433 45.595634"
   version="1.1"
   id="svg86998"
   inkscape:version="1.2.2 (732a01da63, 2022-12-09)"
   sodipodi:docname="HumanEar_001.svg"
   xml:space="preserve"
   xmlns:inkscape="http://www.inkscape.org/namespaces/inkscape"
   xmlns:sodipodi="http://sodipodi.sourceforge.net/DTD/sodipodi-0.dtd"
   xmlns="http://www.w3.org/2000/svg"
   xmlns:svg="http://www.w3.org/2000/svg"><sodipodi:namedview
     id="namedview87000"
     pagecolor="#ffffff"
     bordercolor="#000000"
     borderopacity="0.25"
     inkscape:showpageshadow="2"
     inkscape:pageopacity="0.0"
     inkscape:pagecheckerboard="0"
     inkscape:deskcolor="#d1d1d1"
     inkscape:document-units="mm"
     showgrid="false"
     inkscape:zoom="3.0609708"
     inkscape:cx="57.988139"
     inkscape:cy="82.816863"
     inkscape:window-width="1920"
     inkscape:window-height="991"
     inkscape:window-x="-9"
     inkscape:window-y="-9"
     inkscape:window-maximized="1"
     inkscape:current-layer="layer1" /><defs
     id="defs86995" /><g
     inkscape:label="Layer 1"
     inkscape:groupmode="layer"
     id="layer1"
     transform="translate(-39.630422,-51.284979)"><g
       id="g91767"
       transform="translate(-0.97793115,0.85568976)"><path
         style="color:#000000;opacity:0.654472;fill:#ffd5d5;fill-rule:evenodd;stroke-width:0.352676;stroke-linecap:round;stroke-linejoin:round;-inkscape-stroke:none;paint-order:stroke fill markers"
         d="m 44.639215,81.600759 c -0.06713,0.379394 -0.325243,0.662148 -0.166268,1.47052 0.334122,1.616884 -2.357347,4.905106 -0.814132,8.672099 0.934113,2.280175 1.57574,5.368255 7.053445,3.900509 6.997464,-1.874965 5.72863,-6.584528 7.077416,-9.537917 1.393033,-3.050273 5.584054,-3.448359 8.006514,-12.367971 0.68174,-2.51021 1.84329,-4.955474 1.61282,-7.761284 -0.23046,-2.805849 -1.66586,-5.846977 -4.757327,-9.565346 -3.388467,-4.075586 -6.54124,-5.815914 -9.342583,-5.971212 -0.124714,-0.0069 -0.249401,-0.0106 -0.37362,-0.01085 v -2e-6 c -3.850772,-0.0076 -7.445694,3.133751 -9.677962,6.018237 -0.87671,1.148525 -1.902745,2.227152 -2.395203,3.548104 -0.492456,1.320953 -0.230949,3.024428 0.459403,4.368726 0.128184,0.249605 0.336424,0.488133 0.455786,0.716752 0.513761,0.741509 0.810282,0.872497 1.238425,2.017922 2.7045,7.235445 2.560483,9.204704 1.623286,14.501713 z"
         id="path87731"
         sodipodi:nodetypes="scssssssssscsscss" /><path
         style="color:#000000;fill:#000000;fill-rule:evenodd;stroke-width:0.352676;stroke-linecap:round;stroke-linejoin:round;-inkscape-stroke:none;paint-order:stroke fill markers"
         d="m 48.273232,70.855965 c -0.688818,0.01177 -1.262294,0.350247 -1.617989,0.889868 -0.680079,1.031745 -0.449979,1.912727 -0.120406,2.610177 0.164784,0.348725 0.352252,0.657267 0.461987,0.922424 0.109739,0.265158 0.22498,0.469971 0.115239,0.652674 -0.477672,0.795243 -1.199952,2.15505 -1.268657,3.331062 -0.03435,0.588007 0.06835,1.139661 0.490926,1.447974 0.422573,0.308313 1.927294,0.124125 2.160075,0.06615 0.01121,-0.0028 0.01825,-0.0141 0.0155,-0.02532 -0.0028,-0.01121 -0.01411,-0.01776 -0.02532,-0.01499 -0.226821,0.05649 -1.722765,0.168678 -2.07791,-0.09043 -0.355147,-0.259116 -0.473734,-0.709637 -0.441316,-1.264522 0.06484,-1.109771 0.786493,-2.576374 1.253153,-3.353284 0.150543,-0.250629 0.06947,-0.534635 -0.04909,-0.821138 -0.118572,-0.286503 -0.397596,-0.661423 -0.557071,-0.998905 -0.318947,-0.674967 -0.444507,-1.382843 0.198954,-2.35903 0.32512,-0.493242 0.835375,-0.794868 1.465543,-0.805635 0.630169,-0.01077 2.096294,0.799084 2.23759,0.924491 0.0068,0.006 0.01718,0.0057 0.02325,-10e-4 0.0061,-0.0068 0.0058,-0.01718 -10e-4,-0.02325 -0.145777,-0.129405 -1.574637,-1.099085 -2.263458,-1.087316 z"
         id="path87729" /><path
         style="color:#000000;fill:#000000;fill-rule:evenodd;stroke-width:0.352676;stroke-linecap:round;stroke-linejoin:round;-inkscape-stroke:none;paint-order:stroke fill markers"
         d="m 52.716372,54.09213 c -1.589428,-0.01256 -3.24534,0.658326 -4.675167,1.644344 -1.702288,1.173908 -2.381,2.850873 -2.428276,4.693771 -0.04728,1.842897 0.511707,3.863372 1.248503,5.834269 0.616061,1.647936 2.647046,2.286215 2.733166,2.315104 0.122315,0.04103 -0.03956,-0.113017 -0.192236,-0.19327 -1.07272,-0.563874 -1.879621,-1.163518 -2.302702,-2.178678 -0.274806,-0.735094 -0.52221,-1.491801 -0.721403,-2.242757 0.558837,0.374626 4.985408,2.077866 7.677051,3.199805 1.362563,0.567946 2.972517,1.658133 3.847827,2.443778 0.875309,0.785644 1.355262,1.62898 1.363741,2.836519 0.0069,0.983103 -0.3067,1.726187 -0.639237,2.219503 -0.332539,0.493318 -0.797412,0.808815 -1.351339,1.031979 -1.107857,0.446326 -2.550314,0.484584 -3.732589,0.788582 -2.233541,0.57431 -3.605598,1.862523 -4.303613,3.133142 -0.349005,0.635308 -0.483674,1.274073 -0.579809,1.806608 -0.09614,0.532537 -0.03599,1.079665 -0.01344,1.158586 0.0096,0.03333 0.04418,0.05246 0.07751,0.04289 0.03322,-0.0096 0.0042,-0.119171 -0.0052,-0.152445 -0.04673,-1.427181 0.287534,-2.099203 0.906921,-3.129008 0.690599,-1.148419 1.877102,-2.058636 3.989937,-2.601909 1.098176,-0.282373 2.609196,-0.119799 3.834392,-0.613399 0.612597,-0.2468 1.169775,-0.618871 1.564245,-1.204061 0.394469,-0.585189 0.832651,-1.372394 0.825273,-2.423108 -0.0095,-1.344351 -0.696426,-2.393989 -1.639693,-3.240629 -0.943266,-0.84664 -2.413412,-1.768289 -3.797185,-2.345076 -2.767545,-1.153575 -7.543872,-2.727457 -7.982975,-3.05201 -0.02059,-0.01524 -0.04821,-0.01266 -0.06666,0.0036 -0.312532,-1.202714 -0.499349,-2.387674 -0.472323,-3.441134 0.02121,-0.826778 0.252354,-1.57919 0.658358,-2.258777 l 0.0093,0.01499 0.227377,0.05168 c 1.01822,0.231715 2.263849,0.632084 3.088183,1.317232 0.879122,0.73601 1.61551,1.884234 1.719275,3.191537 l 0.05581,0.230993 c -0.05378,-1.513349 -0.859423,-2.762205 -1.83503,-3.583243 -1.026664,-0.749671 -2.148821,-1.014031 -3.241146,-1.262456 0.447462,-0.733646 1.100075,-1.381484 1.915128,-1.94355 2.885837,-1.990091 6.098275,-1.623894 8.736935,0.694531 1.595039,1.401456 2.661243,3.62183 3.487126,6.214608 0.551538,1.731495 1.820557,3.234125 2.176611,4.637443 0.412412,1.625442 0.801622,3.601085 0.06976,5.836853 -0.924258,2.823521 -3.893373,6.546462 -4.155302,6.902421 -0.02074,0.02823 -0.01474,0.06809 0.01344,0.08888 0.02825,0.02085 0.06808,0.01487 0.08888,-0.01344 0.255849,-0.347689 3.533015,-4.212688 4.496364,-7.155635 0.77347,-2.362715 0.21891,-4.553056 -0.211311,-6.248696 -0.386714,-1.524121 -1.274102,-2.547389 -1.797306,-4.189925 -0.837757,-2.630064 -1.977892,-5.09368 -3.687114,-6.595463 -1.391644,-1.222752 -2.978686,-2.140738 -4.663281,-2.253093 -0.105287,-0.007 -0.210814,-0.01105 -0.316776,-0.01189 z"
         id="path87727" /><path
         style="color:#000000;fill:#000000;fill-rule:evenodd;stroke-width:0.352676;stroke-linecap:round;stroke-linejoin:round;-inkscape-stroke:none;paint-order:stroke fill markers"
         d="m 52.93548,50.429305 c -3.850772,-0.0076 -7.445694,3.133751 -9.677962,6.018237 -0.87671,1.148525 -1.902745,2.227152 -2.395203,3.548104 -0.492456,1.320953 -0.230949,3.024428 0.459403,4.368726 0.128184,0.249605 0.336424,0.488133 0.455786,0.716752 0.513761,0.741509 0.802314,0.743517 0.377755,0.01034 -0.199717,-0.380501 -0.407033,-0.777324 -0.631486,-1.214396 -0.622508,-1.212188 -0.53491,-2.445498 -0.07183,-3.68763 0.46307,-1.242133 1.309037,-2.475268 2.176095,-3.611149 2.966169,-3.075869 5.610684,-5.783907 9.629386,-5.557284 2.659037,0.149949 5.791495,1.646057 9.127091,5.658053 3.047805,3.665847 4.093425,6.693691 4.315495,9.397359 0.22208,2.703668 -0.47759,5.13201 -1.16065,7.647078 -2.401763,8.843427 -7.561743,8.852188 -8.690973,12.205569 -1.627279,4.832397 -1.27806,7.581674 -6.065617,8.864497 -4.508732,1.208111 -5.286158,-1.057237 -6.397708,-3.665624 -1.534428,-3.600723 0.566972,-6.546085 0.21966,-8.055658 -0.07544,-0.371837 -0.29075,-0.809372 -0.131775,-10e-4 0.334122,1.616884 -2.357347,4.905106 -0.814132,8.672099 0.934113,2.280175 1.57574,5.368255 7.053445,3.900509 6.997464,-1.874965 5.72863,-6.584528 7.077416,-9.537917 1.393033,-3.050273 5.584054,-3.448359 8.006514,-12.367971 0.68174,-2.51021 1.84329,-4.955474 1.61282,-7.761284 -0.23046,-2.805849 -1.66586,-5.846977 -4.757327,-9.565346 -3.388467,-4.075586 -6.54124,-5.815914 -9.342583,-5.971212 -0.124714,-0.0069 -0.249401,-0.0106 -0.37362,-0.01085 z"
         id="path87723" /></g></g></svg>
