<svg xmlns="http://www.w3.org/2000/svg" width="256" height="256"><path fill="#1976D2" fill-opacity=".016" fill-rule="evenodd" d="M0 128.004v128.004l128.25-.254 128.25-.254.254-127.75L257.008 0H0v128.004m.485.496c0 70.4.119 99.053.265 63.672.146-35.38.146-92.98 0-128C.604 29.153.485 58.1.485 128.5"/><path fill="#1976D2" fill-opacity=".151" fill-rule="evenodd" d="M76 14.146C53.534 16.38 32.317 29.945 20.439 49.672c-4.27 7.091-4.545 11.557-.862 13.971 4.046 2.65 7.084.909 11.589-6.643 8.082-13.55 22.732-24.572 37.921-28.533 9.069-2.365 27.933-1.587 36.689 1.512 23.481 8.312 39.855 30.362 41.853 56.361 1.227 15.952-4.73 34.178-15.595 47.716-2.741 3.415-10.733 12.273-17.759 19.684-15.975 16.85-18.59 20.653-28.976 42.123-9.51 19.659-14.658 26.26-23.597 30.259-7.119 3.185-19.151 3.29-25.824.226-10.261-4.712-16.971-14.088-18.413-25.73-1.138-9.193-5.89-12.284-11.01-7.163-2.862 2.861-3.028 5.489-.914 14.458 2.091 8.872 5.861 15.318 12.614 21.57 18.395 17.031 45.006 16.356 62.959-1.597 5.038-5.038 7.061-8.334 14.32-23.336 11.167-23.079 13.317-26.253 28.686-42.349 22.796-23.874 31.176-37.191 34.968-55.565 5.504-26.667-2.2-52.121-21.528-71.136-9.503-9.35-16.273-13.605-28.161-17.703C99.802 14.489 86.822 13.07 76 14.146m-5.144 33.111c-14.632 5.118-24.642 15.946-28.442 30.768-2.918 11.384-.278 25.341 6.587 34.818 3.903 5.388 6.278 6.604 10.218 5.231 3.708-1.293 5.781-.012 5.781 3.573 0 1.875-.666 2.536-3.031 3.009-3.253.651-6.969 4.545-6.969 7.305 0 .929 1.107 2.73 2.46 4.002 2.016 1.894 3.197 2.212 6.538 1.764 2.242-.301 5.635-1.736 7.54-3.189 12.39-9.45 6.706-28.864-8.789-30.019-3.858-.288-4.402-.671-5.926-4.168-.922-2.118-1.822-5.641-2-7.829-.305-3.753-.125-4.046 3.177-5.193 5.379-1.869 14.246-1.583 20.212.651 17.746 6.644 25.253 26.093 17.091 44.279-3.524 7.854-8.748 12.211-17.753 14.81-3.878 1.119-8.4 2.54-10.05 3.158-7.959 2.978-13.462 9.571-16.499 19.769-2.124 7.134-3.923 9.454-8.143 10.507-3.029.756-8.276-1.543-9.237-4.048-1.114-2.902-.656-7.588 1.019-10.423 2.116-3.582 1.126-7.726-2.208-9.245-3.894-1.774-7.405.023-10.18 5.213-2.009 3.759-2.347 5.605-2.049 11.207.293 5.503.898 7.476 3.369 10.991 5.35 7.613 14.769 11.133 23.497 8.783 6.411-1.726 13.259-8.866 15.336-15.99 1.948-6.681 4.695-11.355 7.912-13.463 1.326-.869 5.677-2.485 9.669-3.591 9.169-2.541 12.139-4.091 17.769-9.272 5.431-4.998 8.219-9.251 11.056-16.864 11.254-30.207-11.685-62.238-43.423-60.635-4.064.205-7.388.108-7.388-.217 0-2.022 7.96-9.273 12.776-11.638 7.452-3.659 18.188-3.931 25.373-.641 9.104 4.168 15.882 13.478 17.381 23.873.393 2.726 1.404 5.744 2.247 6.707 2.093 2.389 6.771 2.202 9.348-.375 1.769-1.769 2.031-2.911 1.566-6.835-1.369-11.561-7.261-22.216-16.408-29.672-10.712-8.733-26.598-11.598-39.427-7.111m138.517 30.058c-18.546 5.131-21.121 6.888-16.38 11.179 1.93 1.746 2.492 1.669 17.75-2.432 8.666-2.329 16.32-4.701 17.007-5.271 1.901-1.575 1.494-5.59-.684-6.756-1.064-.569-2.077-1.006-2.25-.97-.174.036-7.123 1.949-15.443 4.25M188.2 118.2c-2.146 2.146-1.423 5.765 1.365 6.825 1.444.549 14.745.975 30.429.975 23.997 0 28.081-.218 29.435-1.571 1.871-1.872 2.032-4.568.371-6.229-1.714-1.714-59.886-1.714-61.6 0m-13 31c-2.069 2.069-1.429 5.762 1.169 6.75 1.303.495 12.848 3.7 25.657 7.121 24.98 6.673 26.474 6.747 26.474 1.32 0-2.707-.446-3.029-7-5.053C210.577 155.964 180.141 148 178.171 148c-.974 0-2.311.54-2.971 1.2"/><path fill="#1976D2" fill-opacity=".488" fill-rule="evenodd" d="M68.5 15.566c-3.85.843-11.699 3.811-17.443 6.595-9.057 4.391-11.582 6.21-19.018 13.701C23.652 44.31 17 54.428 17 58.735c0 3.87 6.229 6.8 9.566 4.5.586-.404 2.594-3.435 4.462-6.735C38.095 44.012 52.586 32.843 67.5 28.387c9.21-2.752 25.865-2.547 35.5.437 21.435 6.638 39.004 25.538 43.51 46.805 3.136 14.804 1.42 30.216-4.866 43.703-4.442 9.529-9.884 16.521-26.005 33.412-16.412 17.197-19.508 21.672-30.24 43.704-9.276 19.044-13.354 24.55-21.544 29.086-4.882 2.704-6.194 2.966-14.855 2.966-7.908 0-10.287-.388-14.195-2.313-9.81-4.832-16.088-13.744-17.632-25.027-.947-6.929-2.682-9.41-6.581-9.41-4.969 0-5.904 1.865-5.307 10.579 1.653 24.12 24.974 42.168 49.929 38.641 9.413-1.331 19.421-6.728 26.347-14.209 4.636-5.007 7.3-9.429 13.539-22.47 10.454-21.852 14.231-27.37 30.169-44.087 7.497-7.863 15.743-17.088 18.324-20.5 18.308-24.202 21.763-56.541 8.9-83.286-9.305-19.345-27.417-34.43-47.993-39.971-8.636-2.325-27.314-2.782-36-.881m6.751 30.921c-12.815 2.844-23.607 11.397-29.509 23.386-3.087 6.271-3.242 7.135-3.242 18.106 0 10.831.186 11.91 3.109 18.021 1.711 3.575 4.306 7.769 5.767 9.32 2.351 2.494 3.248 2.783 7.759 2.5 3.997-.251 5.345.059 6.228 1.43 1.502 2.333-.146 4.914-3.753 5.879-4.161 1.113-5.61 2.784-5.61 6.47 0 9.23 14.3 7.329 19.906-2.646C81.675 118.689 74.035 105 62.537 105c-3.815 0-4.314-.31-5.92-3.677-.964-2.022-2.006-5.809-2.315-8.417l-.561-4.74 3.88-1.078c5.636-1.565 15.315-1.329 20.695.504 6.036 2.057 14.07 9.317 17.485 15.8 2.372 4.506 2.689 6.228 2.689 14.608 0 8.389-.316 10.1-2.7 14.628-5.005 9.505-9.349 12.666-21.79 15.855-12.892 3.303-18.107 8.302-22.603 21.664-1.404 4.173-3.431 8.1-4.686 9.081-4.831 3.775-12.876.851-14.196-5.16-.431-1.964.059-4.438 1.513-7.629 2.138-4.693 2.139-4.738.206-7.331-1.07-1.434-2.708-2.758-3.639-2.941-2.736-.538-6.62 2.675-8.657 7.161-4.756 10.476-.3 22.327 10.48 27.869 3.042 1.565 5.306 1.926 10.133 1.619 10.365-.66 16.593-6.072 19.925-17.316 3.035-10.241 5.798-12.613 19.153-16.441 17.836-5.112 28.129-18.8 29.139-38.746.378-7.463.064-10.507-1.67-16.217-2.568-8.455-9.421-17.968-16.359-22.708-8.405-5.742-15.024-7.72-25.922-7.745l-9.684-.022 1.966-2.76c10.408-14.617 31.205-17.268 44.393-5.659 5.457 4.803 9.399 12.082 10.198 18.831.931 7.861 5.137 10.877 10.212 7.323 2.158-1.512 2.308-2.176 1.87-8.296-1.703-23.81-26.651-41.87-50.521-36.573M209 77.864c-17.836 4.902-17.194 4.601-16.817 7.88.247 2.147.91 2.824 3.001 3.066 2.132.246 15.451-2.941 31.015-7.423 2.247-.647 3.275-4.111 1.761-5.935-1.693-2.04-3.687-1.786-18.96 2.412m-20.429 40.707c-1.859 1.86-1.875 1.993-.536 4.495.988 1.846 2.398 1.934 30.965 1.934s29.977-.088 30.965-1.934c1.339-2.502 1.323-2.635-.536-4.495C248.073 117.215 243.9 117 219 117s-29.073.215-30.429 1.571M175.2 149.2c-1.559 1.559-1.534 4.291.05 5.545.688.544 12.16 3.906 25.493 7.471 21.57 5.767 24.465 6.326 26.25 5.076 2.346-1.643 2.574-3.577.613-5.204-1.205-1-47.967-14.088-50.335-14.088-.479 0-1.411.54-2.071 1.2"/><path fill="#1976D2" fill-opacity=".358" fill-rule="evenodd" d="M73.531 15.051C50.028 18.72 29.078 33.613 19.207 53.669c-2.458 4.993-2.485 5.257-.814 7.808 1.363 2.08 2.393 2.575 4.853 2.332 2.685-.266 3.729-1.31 7.438-7.437 5.243-8.662 15.682-18.722 24.018-23.147 12.679-6.728 31.412-9.116 44.838-5.715 17.608 4.461 33.158 16.55 41.148 31.99 9.438 18.241 10.492 36.618 3.189 55.632-3.985 10.374-10.185 18.853-25.873 35.378-19.46 20.5-24.998 28.686-35.124 51.925-5.237 12.02-12.088 20.052-20.697 24.264-4.687 2.293-6.974 2.771-13.177 2.752-16.919-.05-29.964-11.485-32.021-28.069-.923-7.443-2.153-9.382-5.952-9.382-5.837 0-7.361 5.482-4.538 16.32 2.065 7.927 4.893 13.112 10.313 18.906 15.016 16.053 40.279 18.382 57.987 5.346 7.69-5.661 13.701-14.2 20.053-28.484 8.107-18.234 13.3-25.967 27.512-40.966 22.608-23.861 29.338-33.751 34.787-51.122 1.989-6.34 2.35-9.587 2.337-21-.02-16.17-1.44-22.416-8.187-36-6.347-12.778-18.721-25.475-31.01-31.822-13.878-7.166-32.346-10.376-46.756-8.127m-2.044 32.691C59.432 52.047 50.963 59.58 45.82 70.571c-6.683 14.28-4.01 34.219 5.996 44.739 2.409 2.532 3.127 2.748 7.249 2.181 5.182-.713 7.319.774 6.762 4.703-.239 1.682-1.4 2.655-4.296 3.601-4.348 1.421-5.492 2.624-5.516 5.8-.039 5.339 8.064 7.149 14.087 3.147C73.845 132.255 78 125.025 78 121c0-1.417-1.013-4.584-2.25-7.038-2.556-5.068-8.863-8.962-14.518-8.962-2.977 0-3.549-.467-5.201-4.25-1.021-2.338-2.009-6.038-2.194-8.223-.302-3.559-.024-4.133 2.663-5.5 4.753-2.419 17.858-1.951 23.636.844 7.298 3.53 12.48 8.603 15.917 15.585 5.18 10.522 4.284 23.352-2.317 33.175-4.094 6.092-8.289 8.896-17.177 11.48C59.85 152.967 56.23 156.276 51.512 171c-2.435 7.6-4.835 10-9.998 10-7.041 0-11.195-6.044-8.541-12.426 3.393-8.16 2.001-11.984-4.145-11.392-4.639.447-8.161 6.842-8.161 14.818 0 18.216 20.831 27.579 34.296 15.414 3.6-3.252 5.109-6.017 8.455-15.494 2.392-6.774 6.085-9.74 15.398-12.368 9.787-2.762 15.51-6.012 20.92-11.882 12.483-13.542 14.779-34.93 5.566-51.856-3.675-6.753-12.062-14.332-20.043-18.113-6.3-2.984-7.488-3.201-17.508-3.201-5.912 0-10.749-.233-10.75-.518-.004-1.745 5.669-8.338 9.255-10.758C72.79 58.815 76.924 57.495 84 57.557c7.133.063 15.007 3.014 20.546 7.7 4.181 3.538 8.28 11.427 9.566 18.414 1.352 7.348 2.319 8.506 6.784 8.13 4.748-.4 5.974-3.622 4.341-11.408-2.879-13.726-10.766-24.074-22.93-30.086-6.761-3.341-8.477-3.757-16.672-4.04-6.876-.238-10.375.127-14.148 1.475"/></svg>